<svg version="1.1" viewBox="0.0 0.0 408.54330708661416 408.54330708661416" fill="none" stroke="none" stroke-linecap="square" stroke-miterlimit="10" xmlns:xlink="http://www.w3.org/1999/xlink" xmlns="http://www.w3.org/2000/svg"><clipPath id="p.0"><path d="m0 0l408.5433 0l0 408.5433l-408.5433 0l0 -408.5433z" clip-rule="nonzero"/></clipPath><g clip-path="url(#p.0)"><path fill="#000000" fill-opacity="0.0" d="m0 0l408.5433 0l0 408.5433l-408.5433 0z" fill-rule="evenodd"/><path fill="#333333" d="m0 0l98.80315 0l0 98.80315l-98.80315 0z" fill-rule="evenodd"/><path fill="#333333" d="m154.80315 0l98.80315 0l0 98.80315l-98.80315 0z" fill-rule="evenodd"/><path fill="#333333" d="m309.6063 0l98.80316 0l0 98.80315l-98.80316 0z" fill-rule="evenodd"/><path fill="#333333" d="m0 154.80315l98.80315 0l0 98.80315l-98.80315 0z" fill-rule="evenodd"/><path fill="#333333" d="m154.80315 154.80315l98.80315 0l0 98.80315l-98.80315 0z" fill-rule="evenodd"/><path fill="#333333" d="m309.6063 154.80315l98.80316 0l0 98.80315l-98.80316 0z" fill-rule="evenodd"/><path fill="#333333" d="m0 309.6063l98.80315 0l0 98.80316l-98.80315 0z" fill-rule="evenodd"/><path fill="#333333" d="m154.80315 309.6063l98.80315 0l0 98.80316l-98.80315 0z" fill-rule="evenodd"/><path fill="#333333" d="m309.6063 309.6063l98.80316 0l0 98.80316l-98.80316 0z" fill-rule="evenodd"/></g></svg>