<svg version="1.1" viewBox="0.0 0.0 384.20997375328085 550.5275590551181" fill="none" stroke="none" stroke-linecap="square" stroke-miterlimit="10" xmlns:xlink="http://www.w3.org/1999/xlink" xmlns="http://www.w3.org/2000/svg"><clipPath id="p.0"><path d="m0 0l384.20996 0l0 550.5276l-384.20996 0l0 -550.5276z" clip-rule="nonzero"/></clipPath><g clip-path="url(#p.0)"><path fill="#000000" fill-opacity="0.0" d="m0 0l384.20996 0l0 550.5276l-384.20996 0z" fill-rule="evenodd"/><path fill="#4285f4" d="m191.45145 0l-4.2309723 0.10236221l-8.257217 0.8267716l-8.049866 1.6509185l-7.740158 2.3727036l-7.3280945 3.0971127l-7.0183716 3.8188982l-6.6062927 4.43832l-6.0892334 5.057743l-5.5721893 5.572178l-4.9553757 6.089237l-4.4356995 6.503937l-3.8188934 7.015751l-3.0971146 7.328083l-2.4776917 7.7427826l-1.5485535 8.049866l-0.9291382 8.257217l0 4.2309723l0 191.86353l0 4.233612l0.9291382 8.254578l1.5485535 8.05249l2.4776917 7.7401733l3.0971146 7.328064l3.8188934 7.0183716l4.4356995 6.603668l4.9553757 6.089264l5.5721893 5.5747986l6.0892334 4.952759l6.6062927 4.438324l7.0183716 3.8188782l7.3280945 3.097107l7.740158 2.4750671l8.049866 1.5485535l8.257217 0.9291382l8.461945 0l8.257217 -0.9291382l8.049866 -1.5485535l7.7427826 -2.4750671l7.3254547 -3.097107l7.0183716 -3.8188782l6.606308 -4.438324l6.0892334 -4.952759l5.572174 -5.5747986l4.9553986 -6.089264l4.4382935 -6.603668l3.8189087 -7.0183716l3.0944824 -7.328064l2.4776917 -7.7401733l1.5485535 -8.05249l0.9291382 -8.254578l0 -4.233612l0 -191.86353l0 -4.2309723l-0.9291382 -8.257217l-1.5485535 -8.049866l-2.4776917 -7.7427826l-3.0944824 -7.328083l-3.8189087 -7.015751l-4.4382935 -6.503937l-4.9553986 -6.089237l-5.572174 -5.572178l-6.0892334 -5.057743l-6.606308 -4.43832l-7.0183716 -3.8188982l-7.3254547 -3.0971127l-7.7427826 -2.3727036l-8.049866 -1.6509185l-8.257217 -0.8267716l-4.2309723 -0.10236221z" fill-rule="evenodd"/><path fill="#34a853" d="m164.10236 449.57742l0 100.52493l54.80316 0l0 -100.52493z" fill-rule="evenodd"/><path fill="#ea4335" d="m328.71915 274.9475l0 0.10498047l-0.10235596 7.0183716l-1.4461975 13.829407l-2.787384 13.417328l-4.0236206 12.900238l-5.265106 12.280853l-6.2939453 11.664032l-7.4304504 10.939636l-8.362213 10.1154785l-9.391083 9.288727l-10.112854 8.461945l-10.942261 7.3280945l-11.661407 6.398926l-12.280853 5.1601257l-12.902878 4.026245l-13.417328 2.787384l-13.8293915 1.443573l-7.0183716 0.10235596l-7.120743 -0.10235596l-13.8293915 -1.443573l-13.417328 -2.787384l-12.902878 -4.026245l-12.383209 -5.2624817l-11.66404 -6.3989563l-11.041992 -7.43042l-10.21785 -8.464569l-4.645668 -4.6430664l-38.393703 38.393707l6.6063004 6.3989563l14.244091 11.661407l15.272972 10.320221l16.307083 8.876648l17.236221 7.328064l17.958008 5.677185l14.036743 2.9921265l9.496063 1.4461975l9.70079 0.92648315l9.805771 0.5170593l4.952759 0.102386475l4.9553833 -0.102386475l9.803146 -0.5170593l14.448822 -1.545929l18.682404 -3.8188782l17.958023 -5.574829l17.131226 -7.328064l16.307068 -8.7716675l15.275604 -10.32019l14.139099 -11.766418l13.005249 -12.900269l11.661438 -14.24408l10.322815 -15.275604l8.874023 -16.202087l7.3280945 -17.236237l5.5747986 -17.958008l3.8188782 -18.682404l1.65094 -14.448822l0.5144348 -9.700775l0 -4.9553833z" fill-rule="evenodd"/><path fill="#fbbc05" d="m0 275.0525l0 4.952759l0.51706034 9.700775l1.6509187 14.451447l3.8188975 18.577423l5.572179 17.958008l7.2257214 17.131256l8.771654 16.204712l10.3202095 15.275604l11.664043 14.139099l6.2939606 6.6062927l38.393703 -38.393707l-4.6430435 -4.6456604l-8.257217 -10.217834l-7.4304504 -10.83728l-6.296585 -11.661407l-5.1601067 -12.283478l-4.0236206 -12.797913l-2.6850395 -13.312317l-1.4435692 -13.829407l-0.1049881 -7.0183716z" fill-rule="evenodd"/></g></svg>