<svg version="1.1" viewBox="0.0 0.0 408.54330708661416 408.54330708661416" fill="none" stroke="none" stroke-linecap="square" stroke-miterlimit="10" xmlns:xlink="http://www.w3.org/1999/xlink" xmlns="http://www.w3.org/2000/svg"><clipPath id="p.0"><path d="m0 0l408.5433 0l0 408.5433l-408.5433 0l0 -408.5433z" clip-rule="nonzero"/></clipPath><g clip-path="url(#p.0)"><path fill="#000000" fill-opacity="0.0" d="m0 0l408.5433 0l0 408.5433l-408.5433 0z" fill-rule="evenodd"/><path fill="#999999" d="m165.74568 64.23692l10.268723 1.3092346l10.268723 1.2403336l10.268707 2.6184769l8.95929 2.5495758l9.0282135 5.099144l8.959274 5.1680527l7.7187805 5.168045l7.7187653 6.408386l6.4093323 7.717621l5.1688232 7.64872l5.0998993 9.026863l5.168808 8.957954l2.5499573 9.026863l2.5499573 10.267197l1.3094177 10.267197l1.3094482 10.267197l-1.3094482 10.267197l-1.3094177 10.267181l-2.5499573 9.026871l-2.5499573 10.267197l-5.168808 9.026855l-5.0998993 7.6487274l-5.1688232 7.717621l-6.4093323 7.717621l-7.7187653 6.408386l-7.7187805 6.408371l-8.959274 5.168045l-9.0282135 3.8588257l-8.95929 3.8587952l-10.268707 2.549591l-10.268723 1.3092346l-20.606354 0l-10.268723 -1.3092346l-8.95929 -2.549591l-10.268723 -3.8587952l-9.028206 -3.8588257l-7.7187653 -5.168045l-7.6498566 -6.408371l-7.7187653 -6.408386l-6.40934 -7.717621l-6.4782486 -7.717621l-5.0998993 -7.6487274l-3.8593903 -9.026855l-3.8593826 -10.267197l-2.5499496 -9.026871l-1.309433 -10.267181l0 -10.267197l0 -10.267197l1.309433 -10.267197l2.5499496 -10.267197l3.8593826 -9.026863l3.8593903 -8.957954l5.0998993 -9.026863l6.4782486 -7.64872l6.40934 -7.717621l7.7187653 -6.408386l7.6498566 -5.168045l7.7187653 -5.1680527l9.028206 -5.099144l10.268723 -2.5495758l8.95929 -2.6184769l10.268723 -1.2403336l10.337631 -1.3092346zm-5.1688232 -64.22165l-21.846878 2.5495718l-20.53743 3.8588119l-19.296928 7.7176228l-17.987488 9.026863l-16.678055 11.507526l-15.437542 14.126007l-14.128105 15.435249l-11.509235 16.675575l-9.028204 17.984818l-7.718769 19.29406l-3.859385 20.534393l-2.5499506 21.843628l0 21.843628l3.8593848 23.083954l3.8593848 10.336105l3.8593845 11.507538l3.8593845 10.267181l6.409335 10.336105l6.409336 10.267212l7.718771 8.957947l7.718769 9.026855l8.959286 8.957947l9.028202 9.026886l10.268719 6.408386l8.95929 7.717621l11.5781555 6.408386l10.268715 5.099121l10.268723 3.8588257l11.5781555 3.8587952l10.268723 2.6184998l19.29692 2.5495605l17.987488 0l17.987488 -1.3092346l16.678055 -3.8588257l16.678055 -5.099121l16.746979 -6.477295l14.128113 -8.957977l14.128098 -8.957947l0 12.816772l1.240509 6.408386l3.8594055 6.408386l79.6687 79.65689l3.8594055 2.5495605l2.5499573 2.6184998l7.71875 1.2403259l6.4093323 -1.2403259l3.8594055 -2.6184998l2.5499268 -2.5495605l23.156311 -21.843628l2.5499573 -3.8588257l1.3094482 -2.5495605l1.3094177 -7.717621l-1.3094177 -6.408386l-1.3094482 -3.8588257l-2.5499573 -2.5495605l-79.66873 -79.65689l-6.4093323 -5.1680603l-7.71875 -1.2403259l-12.818695 0l10.268738 -14.126007l7.7187805 -14.126007l7.71875 -15.435242l5.0999146 -16.675583l2.5499573 -17.984818l2.618866 -17.984818l-1.3094482 -17.984818l-1.3094177 -17.984818l-2.5499573 -11.576439l-3.8594055 -10.267189l-5.099884 -11.576439l-5.1688232 -10.267197l-5.0999146 -10.267189l-7.71875 -10.267197l-7.7187805 -10.267197l-7.71875 -9.026863l-8.95929 -7.717621l-9.028229 -8.957958l-10.268707 -7.717621l-8.95929 -6.4083843l-11.5781555 -5.168051l-10.268707 -5.099144l-10.268723 -3.8588114l-11.5781555 -3.8588116l-21.846878 -2.549572l-21.846878 -1.3092396z" fill-rule="evenodd"/></g></svg>